%TF.GenerationSoftware,KiCad,Pcbnew,(6.0.9)*%
%TF.CreationDate,2022-12-17T15:31:03+11:00*%
%TF.ProjectId,EurekaProbe0.0.2,45757265-6b61-4507-926f-6265302e302e,rev?*%
%TF.SameCoordinates,Original*%
%TF.FileFunction,Drillmap*%
%TF.FilePolarity,Positive*%
%FSLAX45Y45*%
G04 Gerber Fmt 4.5, Leading zero omitted, Abs format (unit mm)*
G04 Created by KiCad (PCBNEW (6.0.9)) date 2022-12-17 15:31:03*
%MOMM*%
%LPD*%
G01*
G04 APERTURE LIST*
%ADD10C,0.050000*%
%ADD11C,0.200000*%
%ADD12C,0.060000*%
%ADD13C,0.100000*%
%ADD14C,0.120000*%
%ADD15C,0.430000*%
%ADD16C,0.320000*%
G04 APERTURE END LIST*
D10*
X9300000Y-5350000D02*
G75*
G03*
X9150000Y-5200000I-150000J0D01*
G01*
X9300000Y-6550000D02*
X9300000Y-5350000D01*
X6700000Y-5350000D02*
X6700000Y-6550000D01*
X9150000Y-6700000D02*
G75*
G03*
X9300000Y-6550000I0J150000D01*
G01*
X6700000Y-6550000D02*
G75*
G03*
X6850000Y-6700000I150000J0D01*
G01*
X6850000Y-6700000D02*
X9150000Y-6700000D01*
X6850000Y-5200000D02*
G75*
G03*
X6700000Y-5350000I0J-150000D01*
G01*
X9150000Y-5200000D02*
X6850000Y-5200000D01*
D11*
D12*
X6797500Y-5620000D02*
X6857500Y-5680000D01*
X6857500Y-5620000D02*
X6797500Y-5680000D01*
X6891958Y-5391958D02*
X6951958Y-5451958D01*
X6951958Y-5391958D02*
X6891958Y-5451958D01*
X6891958Y-5848042D02*
X6951958Y-5908042D01*
X6951958Y-5848042D02*
X6891958Y-5908042D01*
X7120000Y-5297500D02*
X7180000Y-5357500D01*
X7180000Y-5297500D02*
X7120000Y-5357500D01*
X7120000Y-5942500D02*
X7180000Y-6002500D01*
X7180000Y-5942500D02*
X7120000Y-6002500D01*
X7348042Y-5391958D02*
X7408042Y-5451958D01*
X7408042Y-5391958D02*
X7348042Y-5451958D01*
X7348042Y-5848042D02*
X7408042Y-5908042D01*
X7408042Y-5848042D02*
X7348042Y-5908042D01*
X7442500Y-5620000D02*
X7502500Y-5680000D01*
X7502500Y-5620000D02*
X7442500Y-5680000D01*
X8497500Y-6220000D02*
X8557500Y-6280000D01*
X8557500Y-6220000D02*
X8497500Y-6280000D01*
X8591958Y-5991958D02*
X8651958Y-6051958D01*
X8651958Y-5991958D02*
X8591958Y-6051958D01*
X8591958Y-6448042D02*
X8651958Y-6508042D01*
X8651958Y-6448042D02*
X8591958Y-6508042D01*
X8820000Y-5897500D02*
X8880000Y-5957500D01*
X8880000Y-5897500D02*
X8820000Y-5957500D01*
X8820000Y-6542500D02*
X8880000Y-6602500D01*
X8880000Y-6542500D02*
X8820000Y-6602500D01*
X9048042Y-5991958D02*
X9108042Y-6051958D01*
X9108042Y-5991958D02*
X9048042Y-6051958D01*
X9048042Y-6448042D02*
X9108042Y-6508042D01*
X9108042Y-6448042D02*
X9048042Y-6508042D01*
X9142500Y-6220000D02*
X9202500Y-6280000D01*
X9202500Y-6220000D02*
X9142500Y-6280000D01*
D13*
X8050000Y-5742000D02*
G75*
G03*
X8050000Y-5742000I-50000J0D01*
G01*
D14*
X8000000Y-5432000D02*
X8000000Y-5552000D01*
X7940000Y-5492000D02*
X8060000Y-5492000D01*
X8000000Y-5940000D02*
X8000000Y-6060000D01*
X7940000Y-6000000D02*
X8060000Y-6000000D01*
X8000000Y-6448000D02*
X8000000Y-6568000D01*
X7940000Y-6508000D02*
X8060000Y-6508000D01*
X8000000Y-6448000D02*
X8000000Y-6568000D01*
X7940000Y-6508000D02*
X8060000Y-6508000D01*
D15*
X7302029Y-5802029D02*
X7302029Y-5497971D01*
X6997971Y-5497971D01*
X6997971Y-5802029D01*
X7302029Y-5802029D01*
X9002029Y-6402029D02*
X9002029Y-6097971D01*
X8697971Y-6097971D01*
X8697971Y-6402029D01*
X9002029Y-6402029D01*
D16*
X7150000Y-6560000D02*
X7310000Y-6400000D01*
X7150000Y-6240000D01*
X6990000Y-6400000D01*
X7150000Y-6560000D01*
X8850000Y-5660000D02*
X9010000Y-5500000D01*
X8850000Y-5340000D01*
X8690000Y-5500000D01*
X8850000Y-5660000D01*
D11*
X6955119Y-7012976D02*
X6955119Y-6812976D01*
X7002738Y-6812976D01*
X7031309Y-6822500D01*
X7050357Y-6841548D01*
X7059881Y-6860595D01*
X7069405Y-6898690D01*
X7069405Y-6927262D01*
X7059881Y-6965357D01*
X7050357Y-6984405D01*
X7031309Y-7003452D01*
X7002738Y-7012976D01*
X6955119Y-7012976D01*
X7155119Y-7012976D02*
X7155119Y-6879643D01*
X7155119Y-6917738D02*
X7164643Y-6898690D01*
X7174167Y-6889167D01*
X7193214Y-6879643D01*
X7212262Y-6879643D01*
X7278928Y-7012976D02*
X7278928Y-6879643D01*
X7278928Y-6812976D02*
X7269405Y-6822500D01*
X7278928Y-6832024D01*
X7288452Y-6822500D01*
X7278928Y-6812976D01*
X7278928Y-6832024D01*
X7402738Y-7012976D02*
X7383690Y-7003452D01*
X7374167Y-6984405D01*
X7374167Y-6812976D01*
X7507500Y-7012976D02*
X7488452Y-7003452D01*
X7478928Y-6984405D01*
X7478928Y-6812976D01*
X7736071Y-7012976D02*
X7736071Y-6812976D01*
X7802738Y-6955833D01*
X7869405Y-6812976D01*
X7869405Y-7012976D01*
X8050357Y-7012976D02*
X8050357Y-6908214D01*
X8040833Y-6889167D01*
X8021786Y-6879643D01*
X7983690Y-6879643D01*
X7964643Y-6889167D01*
X8050357Y-7003452D02*
X8031309Y-7012976D01*
X7983690Y-7012976D01*
X7964643Y-7003452D01*
X7955119Y-6984405D01*
X7955119Y-6965357D01*
X7964643Y-6946309D01*
X7983690Y-6936786D01*
X8031309Y-6936786D01*
X8050357Y-6927262D01*
X8145595Y-6879643D02*
X8145595Y-7079643D01*
X8145595Y-6889167D02*
X8164643Y-6879643D01*
X8202738Y-6879643D01*
X8221786Y-6889167D01*
X8231309Y-6898690D01*
X8240833Y-6917738D01*
X8240833Y-6974881D01*
X8231309Y-6993928D01*
X8221786Y-7003452D01*
X8202738Y-7012976D01*
X8164643Y-7012976D01*
X8145595Y-7003452D01*
X8326548Y-6993928D02*
X8336071Y-7003452D01*
X8326548Y-7012976D01*
X8317024Y-7003452D01*
X8326548Y-6993928D01*
X8326548Y-7012976D01*
X8326548Y-6889167D02*
X8336071Y-6898690D01*
X8326548Y-6908214D01*
X8317024Y-6898690D01*
X8326548Y-6889167D01*
X8326548Y-6908214D01*
D12*
X6637500Y-7312500D02*
X6697500Y-7372500D01*
X6697500Y-7312500D02*
X6637500Y-7372500D01*
D11*
X6993214Y-7232976D02*
X7012262Y-7232976D01*
X7031309Y-7242500D01*
X7040833Y-7252024D01*
X7050357Y-7271071D01*
X7059881Y-7309167D01*
X7059881Y-7356786D01*
X7050357Y-7394881D01*
X7040833Y-7413928D01*
X7031309Y-7423452D01*
X7012262Y-7432976D01*
X6993214Y-7432976D01*
X6974167Y-7423452D01*
X6964643Y-7413928D01*
X6955119Y-7394881D01*
X6945595Y-7356786D01*
X6945595Y-7309167D01*
X6955119Y-7271071D01*
X6964643Y-7252024D01*
X6974167Y-7242500D01*
X6993214Y-7232976D01*
X7145595Y-7413928D02*
X7155119Y-7423452D01*
X7145595Y-7432976D01*
X7136071Y-7423452D01*
X7145595Y-7413928D01*
X7145595Y-7432976D01*
X7326548Y-7232976D02*
X7288452Y-7232976D01*
X7269405Y-7242500D01*
X7259881Y-7252024D01*
X7240833Y-7280595D01*
X7231309Y-7318690D01*
X7231309Y-7394881D01*
X7240833Y-7413928D01*
X7250357Y-7423452D01*
X7269405Y-7432976D01*
X7307500Y-7432976D01*
X7326548Y-7423452D01*
X7336071Y-7413928D01*
X7345595Y-7394881D01*
X7345595Y-7347262D01*
X7336071Y-7328214D01*
X7326548Y-7318690D01*
X7307500Y-7309167D01*
X7269405Y-7309167D01*
X7250357Y-7318690D01*
X7240833Y-7328214D01*
X7231309Y-7347262D01*
X7469405Y-7232976D02*
X7488452Y-7232976D01*
X7507500Y-7242500D01*
X7517024Y-7252024D01*
X7526548Y-7271071D01*
X7536071Y-7309167D01*
X7536071Y-7356786D01*
X7526548Y-7394881D01*
X7517024Y-7413928D01*
X7507500Y-7423452D01*
X7488452Y-7432976D01*
X7469405Y-7432976D01*
X7450357Y-7423452D01*
X7440833Y-7413928D01*
X7431309Y-7394881D01*
X7421786Y-7356786D01*
X7421786Y-7309167D01*
X7431309Y-7271071D01*
X7440833Y-7252024D01*
X7450357Y-7242500D01*
X7469405Y-7232976D01*
X7659881Y-7232976D02*
X7678928Y-7232976D01*
X7697976Y-7242500D01*
X7707500Y-7252024D01*
X7717024Y-7271071D01*
X7726548Y-7309167D01*
X7726548Y-7356786D01*
X7717024Y-7394881D01*
X7707500Y-7413928D01*
X7697976Y-7423452D01*
X7678928Y-7432976D01*
X7659881Y-7432976D01*
X7640833Y-7423452D01*
X7631309Y-7413928D01*
X7621786Y-7394881D01*
X7612262Y-7356786D01*
X7612262Y-7309167D01*
X7621786Y-7271071D01*
X7631309Y-7252024D01*
X7640833Y-7242500D01*
X7659881Y-7232976D01*
X7812262Y-7432976D02*
X7812262Y-7299643D01*
X7812262Y-7318690D02*
X7821786Y-7309167D01*
X7840833Y-7299643D01*
X7869405Y-7299643D01*
X7888452Y-7309167D01*
X7897976Y-7328214D01*
X7897976Y-7432976D01*
X7897976Y-7328214D02*
X7907500Y-7309167D01*
X7926548Y-7299643D01*
X7955119Y-7299643D01*
X7974167Y-7309167D01*
X7983690Y-7328214D01*
X7983690Y-7432976D01*
X8078928Y-7432976D02*
X8078928Y-7299643D01*
X8078928Y-7318690D02*
X8088452Y-7309167D01*
X8107500Y-7299643D01*
X8136071Y-7299643D01*
X8155119Y-7309167D01*
X8164643Y-7328214D01*
X8164643Y-7432976D01*
X8164643Y-7328214D02*
X8174167Y-7309167D01*
X8193214Y-7299643D01*
X8221786Y-7299643D01*
X8240833Y-7309167D01*
X8250357Y-7328214D01*
X8250357Y-7432976D01*
X8640833Y-7223452D02*
X8469405Y-7480595D01*
X8897976Y-7232976D02*
X8917024Y-7232976D01*
X8936071Y-7242500D01*
X8945595Y-7252024D01*
X8955119Y-7271071D01*
X8964643Y-7309167D01*
X8964643Y-7356786D01*
X8955119Y-7394881D01*
X8945595Y-7413928D01*
X8936071Y-7423452D01*
X8917024Y-7432976D01*
X8897976Y-7432976D01*
X8878929Y-7423452D01*
X8869405Y-7413928D01*
X8859881Y-7394881D01*
X8850357Y-7356786D01*
X8850357Y-7309167D01*
X8859881Y-7271071D01*
X8869405Y-7252024D01*
X8878929Y-7242500D01*
X8897976Y-7232976D01*
X9050357Y-7413928D02*
X9059881Y-7423452D01*
X9050357Y-7432976D01*
X9040833Y-7423452D01*
X9050357Y-7413928D01*
X9050357Y-7432976D01*
X9183690Y-7232976D02*
X9202738Y-7232976D01*
X9221786Y-7242500D01*
X9231310Y-7252024D01*
X9240833Y-7271071D01*
X9250357Y-7309167D01*
X9250357Y-7356786D01*
X9240833Y-7394881D01*
X9231310Y-7413928D01*
X9221786Y-7423452D01*
X9202738Y-7432976D01*
X9183690Y-7432976D01*
X9164643Y-7423452D01*
X9155119Y-7413928D01*
X9145595Y-7394881D01*
X9136071Y-7356786D01*
X9136071Y-7309167D01*
X9145595Y-7271071D01*
X9155119Y-7252024D01*
X9164643Y-7242500D01*
X9183690Y-7232976D01*
X9326548Y-7252024D02*
X9336071Y-7242500D01*
X9355119Y-7232976D01*
X9402738Y-7232976D01*
X9421786Y-7242500D01*
X9431310Y-7252024D01*
X9440833Y-7271071D01*
X9440833Y-7290119D01*
X9431310Y-7318690D01*
X9317024Y-7432976D01*
X9440833Y-7432976D01*
X9507500Y-7232976D02*
X9631310Y-7232976D01*
X9564643Y-7309167D01*
X9593214Y-7309167D01*
X9612262Y-7318690D01*
X9621786Y-7328214D01*
X9631310Y-7347262D01*
X9631310Y-7394881D01*
X9621786Y-7413928D01*
X9612262Y-7423452D01*
X9593214Y-7432976D01*
X9536071Y-7432976D01*
X9517024Y-7423452D01*
X9507500Y-7413928D01*
X9802738Y-7232976D02*
X9764643Y-7232976D01*
X9745595Y-7242500D01*
X9736071Y-7252024D01*
X9717024Y-7280595D01*
X9707500Y-7318690D01*
X9707500Y-7394881D01*
X9717024Y-7413928D01*
X9726548Y-7423452D01*
X9745595Y-7432976D01*
X9783690Y-7432976D01*
X9802738Y-7423452D01*
X9812262Y-7413928D01*
X9821786Y-7394881D01*
X9821786Y-7347262D01*
X9812262Y-7328214D01*
X9802738Y-7318690D01*
X9783690Y-7309167D01*
X9745595Y-7309167D01*
X9726548Y-7318690D01*
X9717024Y-7328214D01*
X9707500Y-7347262D01*
X9897976Y-7232976D02*
X9897976Y-7271071D01*
X9974167Y-7232976D02*
X9974167Y-7271071D01*
X10269405Y-7509167D02*
X10259881Y-7499643D01*
X10240833Y-7471071D01*
X10231310Y-7452024D01*
X10221786Y-7423452D01*
X10212262Y-7375833D01*
X10212262Y-7337738D01*
X10221786Y-7290119D01*
X10231310Y-7261548D01*
X10240833Y-7242500D01*
X10259881Y-7213928D01*
X10269405Y-7204405D01*
X10450357Y-7432976D02*
X10336071Y-7432976D01*
X10393214Y-7432976D02*
X10393214Y-7232976D01*
X10374167Y-7261548D01*
X10355119Y-7280595D01*
X10336071Y-7290119D01*
X10621786Y-7232976D02*
X10583690Y-7232976D01*
X10564643Y-7242500D01*
X10555119Y-7252024D01*
X10536071Y-7280595D01*
X10526548Y-7318690D01*
X10526548Y-7394881D01*
X10536071Y-7413928D01*
X10545595Y-7423452D01*
X10564643Y-7432976D01*
X10602738Y-7432976D01*
X10621786Y-7423452D01*
X10631310Y-7413928D01*
X10640833Y-7394881D01*
X10640833Y-7347262D01*
X10631310Y-7328214D01*
X10621786Y-7318690D01*
X10602738Y-7309167D01*
X10564643Y-7309167D01*
X10545595Y-7318690D01*
X10536071Y-7328214D01*
X10526548Y-7347262D01*
X10878929Y-7432976D02*
X10878929Y-7232976D01*
X10964643Y-7432976D02*
X10964643Y-7328214D01*
X10955119Y-7309167D01*
X10936071Y-7299643D01*
X10907500Y-7299643D01*
X10888452Y-7309167D01*
X10878929Y-7318690D01*
X11088452Y-7432976D02*
X11069405Y-7423452D01*
X11059881Y-7413928D01*
X11050357Y-7394881D01*
X11050357Y-7337738D01*
X11059881Y-7318690D01*
X11069405Y-7309167D01*
X11088452Y-7299643D01*
X11117024Y-7299643D01*
X11136071Y-7309167D01*
X11145595Y-7318690D01*
X11155119Y-7337738D01*
X11155119Y-7394881D01*
X11145595Y-7413928D01*
X11136071Y-7423452D01*
X11117024Y-7432976D01*
X11088452Y-7432976D01*
X11269405Y-7432976D02*
X11250357Y-7423452D01*
X11240833Y-7404405D01*
X11240833Y-7232976D01*
X11421786Y-7423452D02*
X11402738Y-7432976D01*
X11364643Y-7432976D01*
X11345595Y-7423452D01*
X11336071Y-7404405D01*
X11336071Y-7328214D01*
X11345595Y-7309167D01*
X11364643Y-7299643D01*
X11402738Y-7299643D01*
X11421786Y-7309167D01*
X11431309Y-7328214D01*
X11431309Y-7347262D01*
X11336071Y-7366309D01*
X11507500Y-7423452D02*
X11526548Y-7432976D01*
X11564643Y-7432976D01*
X11583690Y-7423452D01*
X11593214Y-7404405D01*
X11593214Y-7394881D01*
X11583690Y-7375833D01*
X11564643Y-7366309D01*
X11536071Y-7366309D01*
X11517024Y-7356786D01*
X11507500Y-7337738D01*
X11507500Y-7328214D01*
X11517024Y-7309167D01*
X11536071Y-7299643D01*
X11564643Y-7299643D01*
X11583690Y-7309167D01*
X11659881Y-7509167D02*
X11669405Y-7499643D01*
X11688452Y-7471071D01*
X11697976Y-7452024D01*
X11707500Y-7423452D01*
X11717024Y-7375833D01*
X11717024Y-7337738D01*
X11707500Y-7290119D01*
X11697976Y-7261548D01*
X11688452Y-7242500D01*
X11669405Y-7213928D01*
X11659881Y-7204405D01*
D13*
X6697500Y-7606500D02*
G75*
G03*
X6697500Y-7606500I-50000J0D01*
G01*
D11*
X7059881Y-7696976D02*
X6945595Y-7696976D01*
X7002738Y-7696976D02*
X7002738Y-7496976D01*
X6983690Y-7525548D01*
X6964643Y-7544595D01*
X6945595Y-7554119D01*
X7145595Y-7677928D02*
X7155119Y-7687452D01*
X7145595Y-7696976D01*
X7136071Y-7687452D01*
X7145595Y-7677928D01*
X7145595Y-7696976D01*
X7278928Y-7496976D02*
X7297976Y-7496976D01*
X7317024Y-7506500D01*
X7326548Y-7516024D01*
X7336071Y-7535071D01*
X7345595Y-7573167D01*
X7345595Y-7620786D01*
X7336071Y-7658881D01*
X7326548Y-7677928D01*
X7317024Y-7687452D01*
X7297976Y-7696976D01*
X7278928Y-7696976D01*
X7259881Y-7687452D01*
X7250357Y-7677928D01*
X7240833Y-7658881D01*
X7231309Y-7620786D01*
X7231309Y-7573167D01*
X7240833Y-7535071D01*
X7250357Y-7516024D01*
X7259881Y-7506500D01*
X7278928Y-7496976D01*
X7469405Y-7496976D02*
X7488452Y-7496976D01*
X7507500Y-7506500D01*
X7517024Y-7516024D01*
X7526548Y-7535071D01*
X7536071Y-7573167D01*
X7536071Y-7620786D01*
X7526548Y-7658881D01*
X7517024Y-7677928D01*
X7507500Y-7687452D01*
X7488452Y-7696976D01*
X7469405Y-7696976D01*
X7450357Y-7687452D01*
X7440833Y-7677928D01*
X7431309Y-7658881D01*
X7421786Y-7620786D01*
X7421786Y-7573167D01*
X7431309Y-7535071D01*
X7440833Y-7516024D01*
X7450357Y-7506500D01*
X7469405Y-7496976D01*
X7659881Y-7496976D02*
X7678928Y-7496976D01*
X7697976Y-7506500D01*
X7707500Y-7516024D01*
X7717024Y-7535071D01*
X7726548Y-7573167D01*
X7726548Y-7620786D01*
X7717024Y-7658881D01*
X7707500Y-7677928D01*
X7697976Y-7687452D01*
X7678928Y-7696976D01*
X7659881Y-7696976D01*
X7640833Y-7687452D01*
X7631309Y-7677928D01*
X7621786Y-7658881D01*
X7612262Y-7620786D01*
X7612262Y-7573167D01*
X7621786Y-7535071D01*
X7631309Y-7516024D01*
X7640833Y-7506500D01*
X7659881Y-7496976D01*
X7812262Y-7696976D02*
X7812262Y-7563643D01*
X7812262Y-7582690D02*
X7821786Y-7573167D01*
X7840833Y-7563643D01*
X7869405Y-7563643D01*
X7888452Y-7573167D01*
X7897976Y-7592214D01*
X7897976Y-7696976D01*
X7897976Y-7592214D02*
X7907500Y-7573167D01*
X7926548Y-7563643D01*
X7955119Y-7563643D01*
X7974167Y-7573167D01*
X7983690Y-7592214D01*
X7983690Y-7696976D01*
X8078928Y-7696976D02*
X8078928Y-7563643D01*
X8078928Y-7582690D02*
X8088452Y-7573167D01*
X8107500Y-7563643D01*
X8136071Y-7563643D01*
X8155119Y-7573167D01*
X8164643Y-7592214D01*
X8164643Y-7696976D01*
X8164643Y-7592214D02*
X8174167Y-7573167D01*
X8193214Y-7563643D01*
X8221786Y-7563643D01*
X8240833Y-7573167D01*
X8250357Y-7592214D01*
X8250357Y-7696976D01*
X8640833Y-7487452D02*
X8469405Y-7744595D01*
X8897976Y-7496976D02*
X8917024Y-7496976D01*
X8936071Y-7506500D01*
X8945595Y-7516024D01*
X8955119Y-7535071D01*
X8964643Y-7573167D01*
X8964643Y-7620786D01*
X8955119Y-7658881D01*
X8945595Y-7677928D01*
X8936071Y-7687452D01*
X8917024Y-7696976D01*
X8897976Y-7696976D01*
X8878929Y-7687452D01*
X8869405Y-7677928D01*
X8859881Y-7658881D01*
X8850357Y-7620786D01*
X8850357Y-7573167D01*
X8859881Y-7535071D01*
X8869405Y-7516024D01*
X8878929Y-7506500D01*
X8897976Y-7496976D01*
X9050357Y-7677928D02*
X9059881Y-7687452D01*
X9050357Y-7696976D01*
X9040833Y-7687452D01*
X9050357Y-7677928D01*
X9050357Y-7696976D01*
X9183690Y-7496976D02*
X9202738Y-7496976D01*
X9221786Y-7506500D01*
X9231310Y-7516024D01*
X9240833Y-7535071D01*
X9250357Y-7573167D01*
X9250357Y-7620786D01*
X9240833Y-7658881D01*
X9231310Y-7677928D01*
X9221786Y-7687452D01*
X9202738Y-7696976D01*
X9183690Y-7696976D01*
X9164643Y-7687452D01*
X9155119Y-7677928D01*
X9145595Y-7658881D01*
X9136071Y-7620786D01*
X9136071Y-7573167D01*
X9145595Y-7535071D01*
X9155119Y-7516024D01*
X9164643Y-7506500D01*
X9183690Y-7496976D01*
X9317024Y-7496976D02*
X9440833Y-7496976D01*
X9374167Y-7573167D01*
X9402738Y-7573167D01*
X9421786Y-7582690D01*
X9431310Y-7592214D01*
X9440833Y-7611262D01*
X9440833Y-7658881D01*
X9431310Y-7677928D01*
X9421786Y-7687452D01*
X9402738Y-7696976D01*
X9345595Y-7696976D01*
X9326548Y-7687452D01*
X9317024Y-7677928D01*
X9536071Y-7696976D02*
X9574167Y-7696976D01*
X9593214Y-7687452D01*
X9602738Y-7677928D01*
X9621786Y-7649357D01*
X9631310Y-7611262D01*
X9631310Y-7535071D01*
X9621786Y-7516024D01*
X9612262Y-7506500D01*
X9593214Y-7496976D01*
X9555119Y-7496976D01*
X9536071Y-7506500D01*
X9526548Y-7516024D01*
X9517024Y-7535071D01*
X9517024Y-7582690D01*
X9526548Y-7601738D01*
X9536071Y-7611262D01*
X9555119Y-7620786D01*
X9593214Y-7620786D01*
X9612262Y-7611262D01*
X9621786Y-7601738D01*
X9631310Y-7582690D01*
X9802738Y-7563643D02*
X9802738Y-7696976D01*
X9755119Y-7487452D02*
X9707500Y-7630309D01*
X9831310Y-7630309D01*
X9897976Y-7496976D02*
X9897976Y-7535071D01*
X9974167Y-7496976D02*
X9974167Y-7535071D01*
X10269405Y-7773167D02*
X10259881Y-7763643D01*
X10240833Y-7735071D01*
X10231310Y-7716024D01*
X10221786Y-7687452D01*
X10212262Y-7639833D01*
X10212262Y-7601738D01*
X10221786Y-7554119D01*
X10231310Y-7525548D01*
X10240833Y-7506500D01*
X10259881Y-7477928D01*
X10269405Y-7468405D01*
X10450357Y-7696976D02*
X10336071Y-7696976D01*
X10393214Y-7696976D02*
X10393214Y-7496976D01*
X10374167Y-7525548D01*
X10355119Y-7544595D01*
X10336071Y-7554119D01*
X10688452Y-7696976D02*
X10688452Y-7496976D01*
X10774167Y-7696976D02*
X10774167Y-7592214D01*
X10764643Y-7573167D01*
X10745595Y-7563643D01*
X10717024Y-7563643D01*
X10697976Y-7573167D01*
X10688452Y-7582690D01*
X10897976Y-7696976D02*
X10878929Y-7687452D01*
X10869405Y-7677928D01*
X10859881Y-7658881D01*
X10859881Y-7601738D01*
X10869405Y-7582690D01*
X10878929Y-7573167D01*
X10897976Y-7563643D01*
X10926548Y-7563643D01*
X10945595Y-7573167D01*
X10955119Y-7582690D01*
X10964643Y-7601738D01*
X10964643Y-7658881D01*
X10955119Y-7677928D01*
X10945595Y-7687452D01*
X10926548Y-7696976D01*
X10897976Y-7696976D01*
X11078929Y-7696976D02*
X11059881Y-7687452D01*
X11050357Y-7668405D01*
X11050357Y-7496976D01*
X11231309Y-7687452D02*
X11212262Y-7696976D01*
X11174167Y-7696976D01*
X11155119Y-7687452D01*
X11145595Y-7668405D01*
X11145595Y-7592214D01*
X11155119Y-7573167D01*
X11174167Y-7563643D01*
X11212262Y-7563643D01*
X11231309Y-7573167D01*
X11240833Y-7592214D01*
X11240833Y-7611262D01*
X11145595Y-7630309D01*
X11307500Y-7773167D02*
X11317024Y-7763643D01*
X11336071Y-7735071D01*
X11345595Y-7716024D01*
X11355119Y-7687452D01*
X11364643Y-7639833D01*
X11364643Y-7601738D01*
X11355119Y-7554119D01*
X11345595Y-7525548D01*
X11336071Y-7506500D01*
X11317024Y-7477928D01*
X11307500Y-7468405D01*
D14*
X6637500Y-7810500D02*
X6637500Y-7930500D01*
X6577500Y-7870500D02*
X6697500Y-7870500D01*
D11*
X7059881Y-7960976D02*
X6945595Y-7960976D01*
X7002738Y-7960976D02*
X7002738Y-7760976D01*
X6983690Y-7789548D01*
X6964643Y-7808595D01*
X6945595Y-7818119D01*
X7145595Y-7941928D02*
X7155119Y-7951452D01*
X7145595Y-7960976D01*
X7136071Y-7951452D01*
X7145595Y-7941928D01*
X7145595Y-7960976D01*
X7231309Y-7780024D02*
X7240833Y-7770500D01*
X7259881Y-7760976D01*
X7307500Y-7760976D01*
X7326548Y-7770500D01*
X7336071Y-7780024D01*
X7345595Y-7799071D01*
X7345595Y-7818119D01*
X7336071Y-7846690D01*
X7221786Y-7960976D01*
X7345595Y-7960976D01*
X7469405Y-7760976D02*
X7488452Y-7760976D01*
X7507500Y-7770500D01*
X7517024Y-7780024D01*
X7526548Y-7799071D01*
X7536071Y-7837167D01*
X7536071Y-7884786D01*
X7526548Y-7922881D01*
X7517024Y-7941928D01*
X7507500Y-7951452D01*
X7488452Y-7960976D01*
X7469405Y-7960976D01*
X7450357Y-7951452D01*
X7440833Y-7941928D01*
X7431309Y-7922881D01*
X7421786Y-7884786D01*
X7421786Y-7837167D01*
X7431309Y-7799071D01*
X7440833Y-7780024D01*
X7450357Y-7770500D01*
X7469405Y-7760976D01*
X7659881Y-7760976D02*
X7678928Y-7760976D01*
X7697976Y-7770500D01*
X7707500Y-7780024D01*
X7717024Y-7799071D01*
X7726548Y-7837167D01*
X7726548Y-7884786D01*
X7717024Y-7922881D01*
X7707500Y-7941928D01*
X7697976Y-7951452D01*
X7678928Y-7960976D01*
X7659881Y-7960976D01*
X7640833Y-7951452D01*
X7631309Y-7941928D01*
X7621786Y-7922881D01*
X7612262Y-7884786D01*
X7612262Y-7837167D01*
X7621786Y-7799071D01*
X7631309Y-7780024D01*
X7640833Y-7770500D01*
X7659881Y-7760976D01*
X7812262Y-7960976D02*
X7812262Y-7827643D01*
X7812262Y-7846690D02*
X7821786Y-7837167D01*
X7840833Y-7827643D01*
X7869405Y-7827643D01*
X7888452Y-7837167D01*
X7897976Y-7856214D01*
X7897976Y-7960976D01*
X7897976Y-7856214D02*
X7907500Y-7837167D01*
X7926548Y-7827643D01*
X7955119Y-7827643D01*
X7974167Y-7837167D01*
X7983690Y-7856214D01*
X7983690Y-7960976D01*
X8078928Y-7960976D02*
X8078928Y-7827643D01*
X8078928Y-7846690D02*
X8088452Y-7837167D01*
X8107500Y-7827643D01*
X8136071Y-7827643D01*
X8155119Y-7837167D01*
X8164643Y-7856214D01*
X8164643Y-7960976D01*
X8164643Y-7856214D02*
X8174167Y-7837167D01*
X8193214Y-7827643D01*
X8221786Y-7827643D01*
X8240833Y-7837167D01*
X8250357Y-7856214D01*
X8250357Y-7960976D01*
X8640833Y-7751452D02*
X8469405Y-8008595D01*
X8897976Y-7760976D02*
X8917024Y-7760976D01*
X8936071Y-7770500D01*
X8945595Y-7780024D01*
X8955119Y-7799071D01*
X8964643Y-7837167D01*
X8964643Y-7884786D01*
X8955119Y-7922881D01*
X8945595Y-7941928D01*
X8936071Y-7951452D01*
X8917024Y-7960976D01*
X8897976Y-7960976D01*
X8878929Y-7951452D01*
X8869405Y-7941928D01*
X8859881Y-7922881D01*
X8850357Y-7884786D01*
X8850357Y-7837167D01*
X8859881Y-7799071D01*
X8869405Y-7780024D01*
X8878929Y-7770500D01*
X8897976Y-7760976D01*
X9050357Y-7941928D02*
X9059881Y-7951452D01*
X9050357Y-7960976D01*
X9040833Y-7951452D01*
X9050357Y-7941928D01*
X9050357Y-7960976D01*
X9183690Y-7760976D02*
X9202738Y-7760976D01*
X9221786Y-7770500D01*
X9231310Y-7780024D01*
X9240833Y-7799071D01*
X9250357Y-7837167D01*
X9250357Y-7884786D01*
X9240833Y-7922881D01*
X9231310Y-7941928D01*
X9221786Y-7951452D01*
X9202738Y-7960976D01*
X9183690Y-7960976D01*
X9164643Y-7951452D01*
X9155119Y-7941928D01*
X9145595Y-7922881D01*
X9136071Y-7884786D01*
X9136071Y-7837167D01*
X9145595Y-7799071D01*
X9155119Y-7780024D01*
X9164643Y-7770500D01*
X9183690Y-7760976D01*
X9421786Y-7827643D02*
X9421786Y-7960976D01*
X9374167Y-7751452D02*
X9326548Y-7894309D01*
X9450357Y-7894309D01*
X9507500Y-7760976D02*
X9640833Y-7760976D01*
X9555119Y-7960976D01*
X9707500Y-7780024D02*
X9717024Y-7770500D01*
X9736071Y-7760976D01*
X9783690Y-7760976D01*
X9802738Y-7770500D01*
X9812262Y-7780024D01*
X9821786Y-7799071D01*
X9821786Y-7818119D01*
X9812262Y-7846690D01*
X9697976Y-7960976D01*
X9821786Y-7960976D01*
X9897976Y-7760976D02*
X9897976Y-7799071D01*
X9974167Y-7760976D02*
X9974167Y-7799071D01*
X10269405Y-8037167D02*
X10259881Y-8027643D01*
X10240833Y-7999071D01*
X10231310Y-7980024D01*
X10221786Y-7951452D01*
X10212262Y-7903833D01*
X10212262Y-7865738D01*
X10221786Y-7818119D01*
X10231310Y-7789548D01*
X10240833Y-7770500D01*
X10259881Y-7741928D01*
X10269405Y-7732405D01*
X10431310Y-7827643D02*
X10431310Y-7960976D01*
X10383690Y-7751452D02*
X10336071Y-7894309D01*
X10459881Y-7894309D01*
X10688452Y-7960976D02*
X10688452Y-7760976D01*
X10774167Y-7960976D02*
X10774167Y-7856214D01*
X10764643Y-7837167D01*
X10745595Y-7827643D01*
X10717024Y-7827643D01*
X10697976Y-7837167D01*
X10688452Y-7846690D01*
X10897976Y-7960976D02*
X10878929Y-7951452D01*
X10869405Y-7941928D01*
X10859881Y-7922881D01*
X10859881Y-7865738D01*
X10869405Y-7846690D01*
X10878929Y-7837167D01*
X10897976Y-7827643D01*
X10926548Y-7827643D01*
X10945595Y-7837167D01*
X10955119Y-7846690D01*
X10964643Y-7865738D01*
X10964643Y-7922881D01*
X10955119Y-7941928D01*
X10945595Y-7951452D01*
X10926548Y-7960976D01*
X10897976Y-7960976D01*
X11078929Y-7960976D02*
X11059881Y-7951452D01*
X11050357Y-7932405D01*
X11050357Y-7760976D01*
X11231309Y-7951452D02*
X11212262Y-7960976D01*
X11174167Y-7960976D01*
X11155119Y-7951452D01*
X11145595Y-7932405D01*
X11145595Y-7856214D01*
X11155119Y-7837167D01*
X11174167Y-7827643D01*
X11212262Y-7827643D01*
X11231309Y-7837167D01*
X11240833Y-7856214D01*
X11240833Y-7875262D01*
X11145595Y-7894309D01*
X11317024Y-7951452D02*
X11336071Y-7960976D01*
X11374167Y-7960976D01*
X11393214Y-7951452D01*
X11402738Y-7932405D01*
X11402738Y-7922881D01*
X11393214Y-7903833D01*
X11374167Y-7894309D01*
X11345595Y-7894309D01*
X11326548Y-7884786D01*
X11317024Y-7865738D01*
X11317024Y-7856214D01*
X11326548Y-7837167D01*
X11345595Y-7827643D01*
X11374167Y-7827643D01*
X11393214Y-7837167D01*
X11469405Y-8037167D02*
X11478928Y-8027643D01*
X11497976Y-7999071D01*
X11507500Y-7980024D01*
X11517024Y-7951452D01*
X11526548Y-7903833D01*
X11526548Y-7865738D01*
X11517024Y-7818119D01*
X11507500Y-7789548D01*
X11497976Y-7770500D01*
X11478928Y-7741928D01*
X11469405Y-7732405D01*
X6668211Y-8205211D02*
X6668211Y-8063789D01*
X6526789Y-8063789D01*
X6526789Y-8205211D01*
X6668211Y-8205211D01*
X7040833Y-8091643D02*
X7040833Y-8224976D01*
X6993214Y-8015452D02*
X6945595Y-8158309D01*
X7069405Y-8158309D01*
X7145595Y-8205928D02*
X7155119Y-8215452D01*
X7145595Y-8224976D01*
X7136071Y-8215452D01*
X7145595Y-8205928D01*
X7145595Y-8224976D01*
X7221786Y-8024976D02*
X7345595Y-8024976D01*
X7278928Y-8101167D01*
X7307500Y-8101167D01*
X7326548Y-8110690D01*
X7336071Y-8120214D01*
X7345595Y-8139262D01*
X7345595Y-8186881D01*
X7336071Y-8205928D01*
X7326548Y-8215452D01*
X7307500Y-8224976D01*
X7250357Y-8224976D01*
X7231309Y-8215452D01*
X7221786Y-8205928D01*
X7469405Y-8024976D02*
X7488452Y-8024976D01*
X7507500Y-8034500D01*
X7517024Y-8044024D01*
X7526548Y-8063071D01*
X7536071Y-8101167D01*
X7536071Y-8148786D01*
X7526548Y-8186881D01*
X7517024Y-8205928D01*
X7507500Y-8215452D01*
X7488452Y-8224976D01*
X7469405Y-8224976D01*
X7450357Y-8215452D01*
X7440833Y-8205928D01*
X7431309Y-8186881D01*
X7421786Y-8148786D01*
X7421786Y-8101167D01*
X7431309Y-8063071D01*
X7440833Y-8044024D01*
X7450357Y-8034500D01*
X7469405Y-8024976D01*
X7659881Y-8024976D02*
X7678928Y-8024976D01*
X7697976Y-8034500D01*
X7707500Y-8044024D01*
X7717024Y-8063071D01*
X7726548Y-8101167D01*
X7726548Y-8148786D01*
X7717024Y-8186881D01*
X7707500Y-8205928D01*
X7697976Y-8215452D01*
X7678928Y-8224976D01*
X7659881Y-8224976D01*
X7640833Y-8215452D01*
X7631309Y-8205928D01*
X7621786Y-8186881D01*
X7612262Y-8148786D01*
X7612262Y-8101167D01*
X7621786Y-8063071D01*
X7631309Y-8044024D01*
X7640833Y-8034500D01*
X7659881Y-8024976D01*
X7812262Y-8224976D02*
X7812262Y-8091643D01*
X7812262Y-8110690D02*
X7821786Y-8101167D01*
X7840833Y-8091643D01*
X7869405Y-8091643D01*
X7888452Y-8101167D01*
X7897976Y-8120214D01*
X7897976Y-8224976D01*
X7897976Y-8120214D02*
X7907500Y-8101167D01*
X7926548Y-8091643D01*
X7955119Y-8091643D01*
X7974167Y-8101167D01*
X7983690Y-8120214D01*
X7983690Y-8224976D01*
X8078928Y-8224976D02*
X8078928Y-8091643D01*
X8078928Y-8110690D02*
X8088452Y-8101167D01*
X8107500Y-8091643D01*
X8136071Y-8091643D01*
X8155119Y-8101167D01*
X8164643Y-8120214D01*
X8164643Y-8224976D01*
X8164643Y-8120214D02*
X8174167Y-8101167D01*
X8193214Y-8091643D01*
X8221786Y-8091643D01*
X8240833Y-8101167D01*
X8250357Y-8120214D01*
X8250357Y-8224976D01*
X8640833Y-8015452D02*
X8469405Y-8272595D01*
X8897976Y-8024976D02*
X8917024Y-8024976D01*
X8936071Y-8034500D01*
X8945595Y-8044024D01*
X8955119Y-8063071D01*
X8964643Y-8101167D01*
X8964643Y-8148786D01*
X8955119Y-8186881D01*
X8945595Y-8205928D01*
X8936071Y-8215452D01*
X8917024Y-8224976D01*
X8897976Y-8224976D01*
X8878929Y-8215452D01*
X8869405Y-8205928D01*
X8859881Y-8186881D01*
X8850357Y-8148786D01*
X8850357Y-8101167D01*
X8859881Y-8063071D01*
X8869405Y-8044024D01*
X8878929Y-8034500D01*
X8897976Y-8024976D01*
X9050357Y-8205928D02*
X9059881Y-8215452D01*
X9050357Y-8224976D01*
X9040833Y-8215452D01*
X9050357Y-8205928D01*
X9050357Y-8224976D01*
X9250357Y-8224976D02*
X9136071Y-8224976D01*
X9193214Y-8224976D02*
X9193214Y-8024976D01*
X9174167Y-8053548D01*
X9155119Y-8072595D01*
X9136071Y-8082119D01*
X9421786Y-8024976D02*
X9383690Y-8024976D01*
X9364643Y-8034500D01*
X9355119Y-8044024D01*
X9336071Y-8072595D01*
X9326548Y-8110690D01*
X9326548Y-8186881D01*
X9336071Y-8205928D01*
X9345595Y-8215452D01*
X9364643Y-8224976D01*
X9402738Y-8224976D01*
X9421786Y-8215452D01*
X9431310Y-8205928D01*
X9440833Y-8186881D01*
X9440833Y-8139262D01*
X9431310Y-8120214D01*
X9421786Y-8110690D01*
X9402738Y-8101167D01*
X9364643Y-8101167D01*
X9345595Y-8110690D01*
X9336071Y-8120214D01*
X9326548Y-8139262D01*
X9536071Y-8224976D02*
X9574167Y-8224976D01*
X9593214Y-8215452D01*
X9602738Y-8205928D01*
X9621786Y-8177357D01*
X9631310Y-8139262D01*
X9631310Y-8063071D01*
X9621786Y-8044024D01*
X9612262Y-8034500D01*
X9593214Y-8024976D01*
X9555119Y-8024976D01*
X9536071Y-8034500D01*
X9526548Y-8044024D01*
X9517024Y-8063071D01*
X9517024Y-8110690D01*
X9526548Y-8129738D01*
X9536071Y-8139262D01*
X9555119Y-8148786D01*
X9593214Y-8148786D01*
X9612262Y-8139262D01*
X9621786Y-8129738D01*
X9631310Y-8110690D01*
X9697976Y-8024976D02*
X9821786Y-8024976D01*
X9755119Y-8101167D01*
X9783690Y-8101167D01*
X9802738Y-8110690D01*
X9812262Y-8120214D01*
X9821786Y-8139262D01*
X9821786Y-8186881D01*
X9812262Y-8205928D01*
X9802738Y-8215452D01*
X9783690Y-8224976D01*
X9726548Y-8224976D01*
X9707500Y-8215452D01*
X9697976Y-8205928D01*
X9897976Y-8024976D02*
X9897976Y-8063071D01*
X9974167Y-8024976D02*
X9974167Y-8063071D01*
X10269405Y-8301167D02*
X10259881Y-8291643D01*
X10240833Y-8263071D01*
X10231310Y-8244024D01*
X10221786Y-8215452D01*
X10212262Y-8167833D01*
X10212262Y-8129738D01*
X10221786Y-8082119D01*
X10231310Y-8053548D01*
X10240833Y-8034500D01*
X10259881Y-8005928D01*
X10269405Y-7996405D01*
X10336071Y-8044024D02*
X10345595Y-8034500D01*
X10364643Y-8024976D01*
X10412262Y-8024976D01*
X10431310Y-8034500D01*
X10440833Y-8044024D01*
X10450357Y-8063071D01*
X10450357Y-8082119D01*
X10440833Y-8110690D01*
X10326548Y-8224976D01*
X10450357Y-8224976D01*
X10688452Y-8224976D02*
X10688452Y-8024976D01*
X10774167Y-8224976D02*
X10774167Y-8120214D01*
X10764643Y-8101167D01*
X10745595Y-8091643D01*
X10717024Y-8091643D01*
X10697976Y-8101167D01*
X10688452Y-8110690D01*
X10897976Y-8224976D02*
X10878929Y-8215452D01*
X10869405Y-8205928D01*
X10859881Y-8186881D01*
X10859881Y-8129738D01*
X10869405Y-8110690D01*
X10878929Y-8101167D01*
X10897976Y-8091643D01*
X10926548Y-8091643D01*
X10945595Y-8101167D01*
X10955119Y-8110690D01*
X10964643Y-8129738D01*
X10964643Y-8186881D01*
X10955119Y-8205928D01*
X10945595Y-8215452D01*
X10926548Y-8224976D01*
X10897976Y-8224976D01*
X11078929Y-8224976D02*
X11059881Y-8215452D01*
X11050357Y-8196405D01*
X11050357Y-8024976D01*
X11231309Y-8215452D02*
X11212262Y-8224976D01*
X11174167Y-8224976D01*
X11155119Y-8215452D01*
X11145595Y-8196405D01*
X11145595Y-8120214D01*
X11155119Y-8101167D01*
X11174167Y-8091643D01*
X11212262Y-8091643D01*
X11231309Y-8101167D01*
X11240833Y-8120214D01*
X11240833Y-8139262D01*
X11145595Y-8158309D01*
X11317024Y-8215452D02*
X11336071Y-8224976D01*
X11374167Y-8224976D01*
X11393214Y-8215452D01*
X11402738Y-8196405D01*
X11402738Y-8186881D01*
X11393214Y-8167833D01*
X11374167Y-8158309D01*
X11345595Y-8158309D01*
X11326548Y-8148786D01*
X11317024Y-8129738D01*
X11317024Y-8120214D01*
X11326548Y-8101167D01*
X11345595Y-8091643D01*
X11374167Y-8091643D01*
X11393214Y-8101167D01*
X11469405Y-8301167D02*
X11478928Y-8291643D01*
X11497976Y-8263071D01*
X11507500Y-8244024D01*
X11517024Y-8215452D01*
X11526548Y-8167833D01*
X11526548Y-8129738D01*
X11517024Y-8082119D01*
X11507500Y-8053548D01*
X11497976Y-8034500D01*
X11478928Y-8005928D01*
X11469405Y-7996405D01*
X6597500Y-8554500D02*
X6697500Y-8454500D01*
X6597500Y-8354500D01*
X6497500Y-8454500D01*
X6597500Y-8554500D01*
X6936071Y-8344976D02*
X7059881Y-8344976D01*
X6993214Y-8421167D01*
X7021786Y-8421167D01*
X7040833Y-8430690D01*
X7050357Y-8440214D01*
X7059881Y-8459262D01*
X7059881Y-8506881D01*
X7050357Y-8525929D01*
X7040833Y-8535452D01*
X7021786Y-8544976D01*
X6964643Y-8544976D01*
X6945595Y-8535452D01*
X6936071Y-8525929D01*
X7145595Y-8525929D02*
X7155119Y-8535452D01*
X7145595Y-8544976D01*
X7136071Y-8535452D01*
X7145595Y-8525929D01*
X7145595Y-8544976D01*
X7231309Y-8364024D02*
X7240833Y-8354500D01*
X7259881Y-8344976D01*
X7307500Y-8344976D01*
X7326548Y-8354500D01*
X7336071Y-8364024D01*
X7345595Y-8383071D01*
X7345595Y-8402119D01*
X7336071Y-8430690D01*
X7221786Y-8544976D01*
X7345595Y-8544976D01*
X7469405Y-8344976D02*
X7488452Y-8344976D01*
X7507500Y-8354500D01*
X7517024Y-8364024D01*
X7526548Y-8383071D01*
X7536071Y-8421167D01*
X7536071Y-8468786D01*
X7526548Y-8506881D01*
X7517024Y-8525929D01*
X7507500Y-8535452D01*
X7488452Y-8544976D01*
X7469405Y-8544976D01*
X7450357Y-8535452D01*
X7440833Y-8525929D01*
X7431309Y-8506881D01*
X7421786Y-8468786D01*
X7421786Y-8421167D01*
X7431309Y-8383071D01*
X7440833Y-8364024D01*
X7450357Y-8354500D01*
X7469405Y-8344976D01*
X7659881Y-8344976D02*
X7678928Y-8344976D01*
X7697976Y-8354500D01*
X7707500Y-8364024D01*
X7717024Y-8383071D01*
X7726548Y-8421167D01*
X7726548Y-8468786D01*
X7717024Y-8506881D01*
X7707500Y-8525929D01*
X7697976Y-8535452D01*
X7678928Y-8544976D01*
X7659881Y-8544976D01*
X7640833Y-8535452D01*
X7631309Y-8525929D01*
X7621786Y-8506881D01*
X7612262Y-8468786D01*
X7612262Y-8421167D01*
X7621786Y-8383071D01*
X7631309Y-8364024D01*
X7640833Y-8354500D01*
X7659881Y-8344976D01*
X7812262Y-8544976D02*
X7812262Y-8411643D01*
X7812262Y-8430690D02*
X7821786Y-8421167D01*
X7840833Y-8411643D01*
X7869405Y-8411643D01*
X7888452Y-8421167D01*
X7897976Y-8440214D01*
X7897976Y-8544976D01*
X7897976Y-8440214D02*
X7907500Y-8421167D01*
X7926548Y-8411643D01*
X7955119Y-8411643D01*
X7974167Y-8421167D01*
X7983690Y-8440214D01*
X7983690Y-8544976D01*
X8078928Y-8544976D02*
X8078928Y-8411643D01*
X8078928Y-8430690D02*
X8088452Y-8421167D01*
X8107500Y-8411643D01*
X8136071Y-8411643D01*
X8155119Y-8421167D01*
X8164643Y-8440214D01*
X8164643Y-8544976D01*
X8164643Y-8440214D02*
X8174167Y-8421167D01*
X8193214Y-8411643D01*
X8221786Y-8411643D01*
X8240833Y-8421167D01*
X8250357Y-8440214D01*
X8250357Y-8544976D01*
X8640833Y-8335452D02*
X8469405Y-8592595D01*
X8897976Y-8344976D02*
X8917024Y-8344976D01*
X8936071Y-8354500D01*
X8945595Y-8364024D01*
X8955119Y-8383071D01*
X8964643Y-8421167D01*
X8964643Y-8468786D01*
X8955119Y-8506881D01*
X8945595Y-8525929D01*
X8936071Y-8535452D01*
X8917024Y-8544976D01*
X8897976Y-8544976D01*
X8878929Y-8535452D01*
X8869405Y-8525929D01*
X8859881Y-8506881D01*
X8850357Y-8468786D01*
X8850357Y-8421167D01*
X8859881Y-8383071D01*
X8869405Y-8364024D01*
X8878929Y-8354500D01*
X8897976Y-8344976D01*
X9050357Y-8525929D02*
X9059881Y-8535452D01*
X9050357Y-8544976D01*
X9040833Y-8535452D01*
X9050357Y-8525929D01*
X9050357Y-8544976D01*
X9250357Y-8544976D02*
X9136071Y-8544976D01*
X9193214Y-8544976D02*
X9193214Y-8344976D01*
X9174167Y-8373548D01*
X9155119Y-8392595D01*
X9136071Y-8402119D01*
X9326548Y-8364024D02*
X9336071Y-8354500D01*
X9355119Y-8344976D01*
X9402738Y-8344976D01*
X9421786Y-8354500D01*
X9431310Y-8364024D01*
X9440833Y-8383071D01*
X9440833Y-8402119D01*
X9431310Y-8430690D01*
X9317024Y-8544976D01*
X9440833Y-8544976D01*
X9612262Y-8344976D02*
X9574167Y-8344976D01*
X9555119Y-8354500D01*
X9545595Y-8364024D01*
X9526548Y-8392595D01*
X9517024Y-8430690D01*
X9517024Y-8506881D01*
X9526548Y-8525929D01*
X9536071Y-8535452D01*
X9555119Y-8544976D01*
X9593214Y-8544976D01*
X9612262Y-8535452D01*
X9621786Y-8525929D01*
X9631310Y-8506881D01*
X9631310Y-8459262D01*
X9621786Y-8440214D01*
X9612262Y-8430690D01*
X9593214Y-8421167D01*
X9555119Y-8421167D01*
X9536071Y-8430690D01*
X9526548Y-8440214D01*
X9517024Y-8459262D01*
X9755119Y-8344976D02*
X9774167Y-8344976D01*
X9793214Y-8354500D01*
X9802738Y-8364024D01*
X9812262Y-8383071D01*
X9821786Y-8421167D01*
X9821786Y-8468786D01*
X9812262Y-8506881D01*
X9802738Y-8525929D01*
X9793214Y-8535452D01*
X9774167Y-8544976D01*
X9755119Y-8544976D01*
X9736071Y-8535452D01*
X9726548Y-8525929D01*
X9717024Y-8506881D01*
X9707500Y-8468786D01*
X9707500Y-8421167D01*
X9717024Y-8383071D01*
X9726548Y-8364024D01*
X9736071Y-8354500D01*
X9755119Y-8344976D01*
X9897976Y-8344976D02*
X9897976Y-8383071D01*
X9974167Y-8344976D02*
X9974167Y-8383071D01*
X10269405Y-8621167D02*
X10259881Y-8611643D01*
X10240833Y-8583071D01*
X10231310Y-8564024D01*
X10221786Y-8535452D01*
X10212262Y-8487833D01*
X10212262Y-8449738D01*
X10221786Y-8402119D01*
X10231310Y-8373548D01*
X10240833Y-8354500D01*
X10259881Y-8325928D01*
X10269405Y-8316405D01*
X10336071Y-8364024D02*
X10345595Y-8354500D01*
X10364643Y-8344976D01*
X10412262Y-8344976D01*
X10431310Y-8354500D01*
X10440833Y-8364024D01*
X10450357Y-8383071D01*
X10450357Y-8402119D01*
X10440833Y-8430690D01*
X10326548Y-8544976D01*
X10450357Y-8544976D01*
X10688452Y-8544976D02*
X10688452Y-8344976D01*
X10774167Y-8544976D02*
X10774167Y-8440214D01*
X10764643Y-8421167D01*
X10745595Y-8411643D01*
X10717024Y-8411643D01*
X10697976Y-8421167D01*
X10688452Y-8430690D01*
X10897976Y-8544976D02*
X10878929Y-8535452D01*
X10869405Y-8525929D01*
X10859881Y-8506881D01*
X10859881Y-8449738D01*
X10869405Y-8430690D01*
X10878929Y-8421167D01*
X10897976Y-8411643D01*
X10926548Y-8411643D01*
X10945595Y-8421167D01*
X10955119Y-8430690D01*
X10964643Y-8449738D01*
X10964643Y-8506881D01*
X10955119Y-8525929D01*
X10945595Y-8535452D01*
X10926548Y-8544976D01*
X10897976Y-8544976D01*
X11078929Y-8544976D02*
X11059881Y-8535452D01*
X11050357Y-8516405D01*
X11050357Y-8344976D01*
X11231309Y-8535452D02*
X11212262Y-8544976D01*
X11174167Y-8544976D01*
X11155119Y-8535452D01*
X11145595Y-8516405D01*
X11145595Y-8440214D01*
X11155119Y-8421167D01*
X11174167Y-8411643D01*
X11212262Y-8411643D01*
X11231309Y-8421167D01*
X11240833Y-8440214D01*
X11240833Y-8459262D01*
X11145595Y-8478310D01*
X11317024Y-8535452D02*
X11336071Y-8544976D01*
X11374167Y-8544976D01*
X11393214Y-8535452D01*
X11402738Y-8516405D01*
X11402738Y-8506881D01*
X11393214Y-8487833D01*
X11374167Y-8478310D01*
X11345595Y-8478310D01*
X11326548Y-8468786D01*
X11317024Y-8449738D01*
X11317024Y-8440214D01*
X11326548Y-8421167D01*
X11345595Y-8411643D01*
X11374167Y-8411643D01*
X11393214Y-8421167D01*
X11469405Y-8621167D02*
X11478928Y-8611643D01*
X11497976Y-8583071D01*
X11507500Y-8564024D01*
X11517024Y-8535452D01*
X11526548Y-8487833D01*
X11526548Y-8449738D01*
X11517024Y-8402119D01*
X11507500Y-8373548D01*
X11497976Y-8354500D01*
X11478928Y-8325928D01*
X11469405Y-8316405D01*
X11831309Y-8621167D02*
X11821786Y-8611643D01*
X11802738Y-8583071D01*
X11793214Y-8564024D01*
X11783690Y-8535452D01*
X11774167Y-8487833D01*
X11774167Y-8449738D01*
X11783690Y-8402119D01*
X11793214Y-8373548D01*
X11802738Y-8354500D01*
X11821786Y-8325928D01*
X11831309Y-8316405D01*
X11907500Y-8411643D02*
X11907500Y-8544976D01*
X11907500Y-8430690D02*
X11917024Y-8421167D01*
X11936071Y-8411643D01*
X11964643Y-8411643D01*
X11983690Y-8421167D01*
X11993214Y-8440214D01*
X11993214Y-8544976D01*
X12117024Y-8544976D02*
X12097976Y-8535452D01*
X12088452Y-8525929D01*
X12078928Y-8506881D01*
X12078928Y-8449738D01*
X12088452Y-8430690D01*
X12097976Y-8421167D01*
X12117024Y-8411643D01*
X12145595Y-8411643D01*
X12164643Y-8421167D01*
X12174167Y-8430690D01*
X12183690Y-8449738D01*
X12183690Y-8506881D01*
X12174167Y-8525929D01*
X12164643Y-8535452D01*
X12145595Y-8544976D01*
X12117024Y-8544976D01*
X12240833Y-8411643D02*
X12317024Y-8411643D01*
X12269405Y-8344976D02*
X12269405Y-8516405D01*
X12278928Y-8535452D01*
X12297976Y-8544976D01*
X12317024Y-8544976D01*
X12536071Y-8411643D02*
X12536071Y-8611643D01*
X12536071Y-8421167D02*
X12555119Y-8411643D01*
X12593214Y-8411643D01*
X12612262Y-8421167D01*
X12621786Y-8430690D01*
X12631309Y-8449738D01*
X12631309Y-8506881D01*
X12621786Y-8525929D01*
X12612262Y-8535452D01*
X12593214Y-8544976D01*
X12555119Y-8544976D01*
X12536071Y-8535452D01*
X12745595Y-8544976D02*
X12726548Y-8535452D01*
X12717024Y-8516405D01*
X12717024Y-8344976D01*
X12907500Y-8544976D02*
X12907500Y-8440214D01*
X12897976Y-8421167D01*
X12878928Y-8411643D01*
X12840833Y-8411643D01*
X12821786Y-8421167D01*
X12907500Y-8535452D02*
X12888452Y-8544976D01*
X12840833Y-8544976D01*
X12821786Y-8535452D01*
X12812262Y-8516405D01*
X12812262Y-8497357D01*
X12821786Y-8478310D01*
X12840833Y-8468786D01*
X12888452Y-8468786D01*
X12907500Y-8459262D01*
X12974167Y-8411643D02*
X13050357Y-8411643D01*
X13002738Y-8344976D02*
X13002738Y-8516405D01*
X13012262Y-8535452D01*
X13031309Y-8544976D01*
X13050357Y-8544976D01*
X13193214Y-8535452D02*
X13174167Y-8544976D01*
X13136071Y-8544976D01*
X13117024Y-8535452D01*
X13107500Y-8516405D01*
X13107500Y-8440214D01*
X13117024Y-8421167D01*
X13136071Y-8411643D01*
X13174167Y-8411643D01*
X13193214Y-8421167D01*
X13202738Y-8440214D01*
X13202738Y-8459262D01*
X13107500Y-8478310D01*
X13374167Y-8544976D02*
X13374167Y-8344976D01*
X13374167Y-8535452D02*
X13355119Y-8544976D01*
X13317024Y-8544976D01*
X13297976Y-8535452D01*
X13288452Y-8525929D01*
X13278928Y-8506881D01*
X13278928Y-8449738D01*
X13288452Y-8430690D01*
X13297976Y-8421167D01*
X13317024Y-8411643D01*
X13355119Y-8411643D01*
X13374167Y-8421167D01*
X13450357Y-8621167D02*
X13459881Y-8611643D01*
X13478928Y-8583071D01*
X13488452Y-8564024D01*
X13497976Y-8535452D01*
X13507500Y-8487833D01*
X13507500Y-8449738D01*
X13497976Y-8402119D01*
X13488452Y-8373548D01*
X13478928Y-8354500D01*
X13459881Y-8325928D01*
X13450357Y-8316405D01*
M02*
