%TF.GenerationSoftware,KiCad,Pcbnew,(6.0.9)*%
%TF.CreationDate,2022-12-18T21:26:28+11:00*%
%TF.ProjectId,EurekaProbe0.0.2,45757265-6b61-4507-926f-6265302e302e,rev?*%
%TF.SameCoordinates,Original*%
%TF.FileFunction,Legend,Top*%
%TF.FilePolarity,Positive*%
%FSLAX46Y46*%
G04 Gerber Fmt 4.6, Leading zero omitted, Abs format (unit mm)*
G04 Created by KiCad (PCBNEW (6.0.9)) date 2022-12-18 21:26:28*
%MOMM*%
%LPD*%
G01*
G04 APERTURE LIST*
%ADD10C,0.150000*%
%ADD11C,0.120000*%
%ADD12C,0.100000*%
G04 APERTURE END LIST*
D10*
X81584995Y-55738090D02*
X81665945Y-55819040D01*
X82202380Y-57729290D02*
X82121430Y-57729290D01*
X82273095Y-53714280D02*
X82354045Y-53795230D01*
D11*
X82725000Y-59150000D02*
X81360000Y-59150000D01*
D10*
X81838090Y-58174520D02*
X81757140Y-58215000D01*
X81746895Y-53673810D02*
X81908805Y-53633330D01*
X82313565Y-55373810D02*
X82030235Y-55373810D01*
X82394515Y-55616660D02*
X82394515Y-55535710D01*
X81919050Y-58053100D02*
X81878570Y-58134050D01*
X82040470Y-57769760D02*
X82000000Y-57810240D01*
X82030235Y-53633330D02*
X82192135Y-53673810D01*
X82364280Y-57365000D02*
X81514280Y-57365000D01*
X82273095Y-55819040D02*
X82354045Y-55738090D01*
X81665945Y-55819040D02*
X81746895Y-55859520D01*
X81665945Y-53714280D02*
X81746895Y-53673810D01*
X82323810Y-56515000D02*
X82283330Y-56474520D01*
X81514280Y-57850720D02*
X81554760Y-57729290D01*
X81676190Y-58215000D02*
X81595240Y-58174520D01*
X82283330Y-56474520D02*
X82000000Y-56474520D01*
X81959520Y-57891190D02*
X81919050Y-58053100D01*
X82192135Y-53673810D02*
X82273095Y-53714280D01*
X81878570Y-58134050D02*
X81838090Y-58174520D01*
X82394515Y-55009520D02*
X81544515Y-55009520D01*
X82161900Y-56960240D02*
X82242860Y-56919760D01*
X82283330Y-57769760D02*
X82202380Y-57729290D01*
X81554760Y-56515000D02*
X81514280Y-56595950D01*
D11*
X78260000Y-59900000D02*
X78660000Y-59900000D01*
D10*
X81544515Y-54119040D02*
X81544515Y-53916660D01*
X81635710Y-56919760D02*
X81716660Y-56960240D01*
X82192135Y-55859520D02*
X82273095Y-55819040D01*
X81544515Y-55495230D02*
X81544515Y-55616660D01*
X81514280Y-58053100D02*
X81514280Y-57850720D01*
X81757140Y-58215000D02*
X81676190Y-58215000D01*
X82364280Y-56717380D02*
X82364280Y-56636430D01*
X82000000Y-57000720D02*
X82161900Y-56960240D01*
X81595240Y-58174520D02*
X81554760Y-58134050D01*
X81544515Y-55616660D02*
X81584995Y-55738090D01*
X81584995Y-55414280D02*
X81544515Y-55495230D01*
D11*
X83485000Y-59910000D02*
X81370000Y-59910000D01*
D10*
X81544515Y-53916660D02*
X81584995Y-53795230D01*
X82354045Y-55414280D02*
X82313565Y-55373810D01*
X81554760Y-58134050D02*
X81514280Y-58053100D01*
X82242860Y-56919760D02*
X82323810Y-56838810D01*
X82030235Y-55373810D02*
X82030235Y-55535710D01*
X81716660Y-56960240D02*
X81878570Y-57000720D01*
X82354045Y-53795230D02*
X82394515Y-53916660D01*
X82030235Y-55900000D02*
X82192135Y-55859520D01*
X82394515Y-55535710D02*
X82354045Y-55414280D01*
X82323810Y-58215000D02*
X82364280Y-58093570D01*
X82000000Y-56474520D02*
X82000000Y-56636430D01*
X82121430Y-57729290D02*
X82040470Y-57769760D01*
X81514280Y-56717380D02*
X81554760Y-56838810D01*
X82394515Y-53916660D02*
X82394515Y-54119040D01*
X82364280Y-57891190D02*
X82323810Y-57810240D01*
X81514280Y-56595950D02*
X81514280Y-56717380D01*
X81554760Y-56838810D02*
X81635710Y-56919760D01*
X81544515Y-55009520D02*
X82394515Y-54523810D01*
X81584995Y-53795230D02*
X81665945Y-53714280D01*
X82364280Y-58093570D02*
X82364280Y-57891190D01*
X82394515Y-54119040D02*
X81544515Y-54119040D01*
X82000000Y-57810240D02*
X81959520Y-57891190D01*
X81878570Y-57000720D02*
X82000000Y-57000720D01*
X82323810Y-57810240D02*
X82283330Y-57769760D01*
X82354045Y-55738090D02*
X82394515Y-55616660D01*
X81908805Y-53633330D02*
X82030235Y-53633330D01*
X82364280Y-56636430D02*
X82323810Y-56515000D01*
X81746895Y-55859520D02*
X81908805Y-55900000D01*
X81908805Y-55900000D02*
X82030235Y-55900000D01*
X82323810Y-56838810D02*
X82364280Y-56717380D01*
X82394515Y-54523810D02*
X81544515Y-54523810D01*
D12*
X74214285Y-62178571D02*
X74547619Y-62178571D01*
X74690476Y-62702380D02*
X74214285Y-62702380D01*
X74214285Y-61702380D01*
X74690476Y-61702380D01*
X75547619Y-62035714D02*
X75547619Y-62702380D01*
X75119047Y-62035714D02*
X75119047Y-62559523D01*
X75166666Y-62654761D01*
X75261904Y-62702380D01*
X75404761Y-62702380D01*
X75500000Y-62654761D01*
X75547619Y-62607142D01*
X76023809Y-62702380D02*
X76023809Y-62035714D01*
X76023809Y-62226190D02*
X76071428Y-62130952D01*
X76119047Y-62083333D01*
X76214285Y-62035714D01*
X76309523Y-62035714D01*
X77023809Y-62654761D02*
X76928571Y-62702380D01*
X76738095Y-62702380D01*
X76642857Y-62654761D01*
X76595238Y-62559523D01*
X76595238Y-62178571D01*
X76642857Y-62083333D01*
X76738095Y-62035714D01*
X76928571Y-62035714D01*
X77023809Y-62083333D01*
X77071428Y-62178571D01*
X77071428Y-62273809D01*
X76595238Y-62369047D01*
X77500000Y-62702380D02*
X77500000Y-61702380D01*
X77595238Y-62321428D02*
X77880952Y-62702380D01*
X77880952Y-62035714D02*
X77500000Y-62416666D01*
X78738095Y-62702380D02*
X78738095Y-62178571D01*
X78690476Y-62083333D01*
X78595238Y-62035714D01*
X78404761Y-62035714D01*
X78309523Y-62083333D01*
X78738095Y-62654761D02*
X78642857Y-62702380D01*
X78404761Y-62702380D01*
X78309523Y-62654761D01*
X78261904Y-62559523D01*
X78261904Y-62464285D01*
X78309523Y-62369047D01*
X78404761Y-62321428D01*
X78642857Y-62321428D01*
X78738095Y-62273809D01*
X79976190Y-62702380D02*
X79976190Y-61702380D01*
X80357142Y-61702380D01*
X80452380Y-61750000D01*
X80500000Y-61797619D01*
X80547619Y-61892857D01*
X80547619Y-62035714D01*
X80500000Y-62130952D01*
X80452380Y-62178571D01*
X80357142Y-62226190D01*
X79976190Y-62226190D01*
X80976190Y-62702380D02*
X80976190Y-62035714D01*
X80976190Y-62226190D02*
X81023809Y-62130952D01*
X81071428Y-62083333D01*
X81166666Y-62035714D01*
X81261904Y-62035714D01*
X81738095Y-62702380D02*
X81642857Y-62654761D01*
X81595238Y-62607142D01*
X81547619Y-62511904D01*
X81547619Y-62226190D01*
X81595238Y-62130952D01*
X81642857Y-62083333D01*
X81738095Y-62035714D01*
X81880952Y-62035714D01*
X81976190Y-62083333D01*
X82023809Y-62130952D01*
X82071428Y-62226190D01*
X82071428Y-62511904D01*
X82023809Y-62607142D01*
X81976190Y-62654761D01*
X81880952Y-62702380D01*
X81738095Y-62702380D01*
X82500000Y-62702380D02*
X82500000Y-61702380D01*
X82500000Y-62083333D02*
X82595238Y-62035714D01*
X82785714Y-62035714D01*
X82880952Y-62083333D01*
X82928571Y-62130952D01*
X82976190Y-62226190D01*
X82976190Y-62511904D01*
X82928571Y-62607142D01*
X82880952Y-62654761D01*
X82785714Y-62702380D01*
X82595238Y-62702380D01*
X82500000Y-62654761D01*
X83785714Y-62654761D02*
X83690476Y-62702380D01*
X83500000Y-62702380D01*
X83404761Y-62654761D01*
X83357142Y-62559523D01*
X83357142Y-62178571D01*
X83404761Y-62083333D01*
X83500000Y-62035714D01*
X83690476Y-62035714D01*
X83785714Y-62083333D01*
X83833333Y-62178571D01*
X83833333Y-62273809D01*
X83357142Y-62369047D01*
D10*
%TO.C,*%
D11*
%TO.C,REF\u002A\u002A*%
X77525000Y-52300000D02*
X77525000Y-54100000D01*
X83485000Y-59910000D02*
X83485000Y-52290000D01*
X77525000Y-59900000D02*
X78275000Y-59900000D01*
X83485000Y-52290000D02*
X77515000Y-52290000D01*
X82725000Y-59150000D02*
X82725000Y-56100000D01*
X77525000Y-56600000D02*
X78275000Y-56600000D01*
X82725000Y-53050000D02*
X82725000Y-56100000D01*
X78275000Y-59900000D02*
X78275000Y-58100000D01*
X79775000Y-52300000D02*
X79775000Y-53050000D01*
X78275000Y-54100000D02*
X78275000Y-52300000D01*
X77525000Y-58100000D02*
X77525000Y-59900000D01*
X78275000Y-55600000D02*
X77525000Y-55600000D01*
X78275000Y-52300000D02*
X77525000Y-52300000D01*
X77525000Y-54100000D02*
X78275000Y-54100000D01*
X77515000Y-52290000D02*
X77515000Y-59910000D01*
X79775000Y-53050000D02*
X82725000Y-53050000D01*
X77525000Y-55600000D02*
X77525000Y-56600000D01*
X78275000Y-56600000D02*
X78275000Y-55600000D01*
X78275000Y-58100000D02*
X77525000Y-58100000D01*
%TD*%
M02*
